<svg id="Layer_1" data-name="Layer 1" xmlns="http://www.w3.org/2000/svg" viewBox="0 0 404 167"><defs><style>.cls-1{fill:#ed1e79;}.cls-2{fill:#f7931e;}.cls-3{fill:#f15a24;}.cls-4{fill:#fcee21;}.cls-5{fill:#00a99d;}.cls-6{fill:#29abe2;}.cls-7{fill:#0071bc;}.cls-8{fill:#d4145a;}.cls-9{fill:#1b1464;}</style></defs><title>Artboard 1</title><rect class="cls-1" x="37.16" y="118.51" width="8.13" height="53.55" transform="translate(-104.06 186.52) rotate(-90)"/><rect class="cls-2" x="37.16" y="107.67" width="8.13" height="53.55" transform="translate(-93.22 175.68) rotate(-90)"/><rect class="cls-2" x="32.91" y="96.83" width="8.13" height="53.55" transform="translate(-86.64 160.59) rotate(-90)"/><rect class="cls-3" x="37.16" y="85.99" width="8.13" height="53.55" transform="translate(-71.54 154) rotate(-90)"/><rect class="cls-3" x="32.91" y="75.15" width="8.13" height="53.55" transform="translate(-64.96 138.91) rotate(-90)"/><rect class="cls-4" x="37.16" y="64.31" width="8.13" height="53.55" transform="translate(-49.86 132.32) rotate(-90)"/><polygon class="cls-4" points="67.64 71.4 68.21 79.51 14.82 84.23 14.25 76.12 67.64 71.4"/><rect class="cls-5" x="37.16" y="37.49" width="8.13" height="53.55" transform="translate(-23.03 105.49) rotate(-90)"/><rect class="cls-5" x="28.66" y="26.65" width="8.13" height="53.55" transform="translate(-20.7 86.14) rotate(-90)"/><rect class="cls-6" x="37.16" y="15.81" width="8.13" height="53.55" transform="translate(-1.36 83.81) rotate(-90)"/><rect class="cls-6" x="37.16" y="4.97" width="8.13" height="53.55" transform="translate(9.48 72.97) rotate(-90)"/><rect class="cls-7" x="32.91" y="-5.87" width="8.13" height="53.55" transform="translate(16.07 57.88) rotate(-90)"/><rect class="cls-7" x="45.5" y="-25.05" width="8.13" height="70.23" transform="translate(39.5 59.63) rotate(-90)"/><rect class="cls-8" x="41.6" y="120.46" width="8.13" height="70.94" transform="translate(-110.27 201.6) rotate(-90)"/><path class="cls-9" d="M125.8,27.07l-6.28,18q-6.17-8.34-14.17-8.34-4.45,0-4.45,3.36a2.91,2.91,0,0,0,1.4,2.13q1.4,1.08,7.35,3.4a71.79,71.79,0,0,1,10.08,4.69,13.92,13.92,0,0,1,5.29,5.4,16,16,0,0,1,1.76,7.66q0,9.16-7,14t-20.45,4.8q-15.14,0-26.1-4.3l6.17-19.07a21.12,21.12,0,0,0,6.67,6.66,14.56,14.56,0,0,0,7.65,2.47,4.79,4.79,0,0,0,3-.94A2.79,2.79,0,0,0,98,64.68a3.41,3.41,0,0,0-1.18-2.43Q95.62,61.09,90.58,59A59,59,0,0,1,83,55.47a16.18,16.18,0,0,1-5.2-5,14,14,0,0,1-2.21-8.11q0-9.5,6.92-14.32T103,23.25A66.48,66.48,0,0,1,125.8,27.07Z"/><path class="cls-9" d="M163.05,36.19V48.83h-9.65v9.65q0,4.9,4.37,4.9,3.22,0,5.53-3.22V78A23.63,23.63,0,0,1,150,81.58a20.6,20.6,0,0,1-14-5q-5.7-5-5.7-13.68V48.83h-9.42l32.53-25.5V36.19Z"/><path class="cls-9" d="M164.83,54.7V41.16A45.59,45.59,0,0,1,187,35.82q11.81,0,17.42,5t5.61,15.44v24.9H187V77.84a18.67,18.67,0,0,1-11.25,3.74,11.84,11.84,0,0,1-8.6-3.35,11.27,11.27,0,0,1-3.44-8.43,11.85,11.85,0,0,1,4.26-9.44q4.26-3.65,11.14-3.65a30,30,0,0,1,7.89,1,5.72,5.72,0,0,0-2.41-4.9,11.22,11.22,0,0,0-6.71-1.76A27.31,27.31,0,0,0,164.83,54.7ZM187,71.26V65a11.9,11.9,0,0,0-3.78-.71,5,5,0,0,0-3.36,1.08,3.55,3.55,0,0,0-1.27,2.84,4,4,0,0,0,1.36,3.07,5,5,0,0,0,3.46,1.23A5.37,5.37,0,0,0,187,71.26Z"/><path class="cls-9" d="M273.35,81.21H246.69l-6.28-8.9-6.28,8.9H209.38L227.1,58.33,209.38,36.19H236l6.28,8.71,6.06-8.71h25L255.63,59Z"/><path class="cls-9" d="M321.09,82.14a28.09,28.09,0,0,1-20.73-8.58,28.59,28.59,0,0,1-8.51-20.92,28.42,28.42,0,0,1,8.51-20.84,29.47,29.47,0,0,1,41.5,0,28.42,28.42,0,0,1,8.51,20.84,28.59,28.59,0,0,1-8.51,20.92A28.13,28.13,0,0,1,321.09,82.14Zm0-37a5.32,5.32,0,0,0-4,1.7,6.5,6.5,0,0,0,0,8.56,5.69,5.69,0,0,0,8.11,0,6.5,6.5,0,0,0,0-8.56A5.37,5.37,0,0,0,321.09,45.13Z"/><path class="cls-9" d="M391,49.8v9.5H377.94V81.21H354.8V59.3h-5V49.8h5q0-12.53,6.6-19.54t18.15-7A47.9,47.9,0,0,1,391,24.94V47.59q-3.36-4.07-7.29-4.08a5.41,5.41,0,0,0-4.26,1.72,6.6,6.6,0,0,0-1.53,4.56Z"/><path class="cls-9" d="M129.06,83.32,122.4,102.4q-6.55-8.85-15-8.85-4.72,0-4.72,3.57a3.08,3.08,0,0,0,1.49,2.26q1.49,1.15,7.8,3.61a76.1,76.1,0,0,1,10.69,5,14.78,14.78,0,0,1,5.61,5.73,17,17,0,0,1,1.86,8.13q0,9.72-7.38,14.82t-21.7,5.1q-16.07,0-27.69-4.56L79.87,117A22.41,22.41,0,0,0,86.95,124a15.45,15.45,0,0,0,8.11,2.62,5.08,5.08,0,0,0,3.19-1,3,3,0,0,0,1.29-2.42,3.62,3.62,0,0,0-1.25-2.58q-1.25-1.23-6.61-3.41a62.58,62.58,0,0,1-8-3.79,17.17,17.17,0,0,1-5.51-5.26,14.88,14.88,0,0,1-2.34-8.61q0-10.08,7.34-15.19t21.66-5.12A70.54,70.54,0,0,1,129.06,83.32Z"/><path class="cls-9" d="M168.6,93v13.41H158.36v10.24q0,5.2,4.64,5.2,3.41,0,5.87-3.41v18.92a25.07,25.07,0,0,1-14.08,3.81,21.86,21.86,0,0,1-14.9-5.28q-6.05-5.28-6.05-14.52v-15h-10l34.52-27.06V93Z"/><path class="cls-9" d="M194.6,141.48q-11.35,0-18.71-6.84t-7.36-17.83q0-11,7.26-17.89T194.6,92q11.62,0,18.9,6.9t7.28,17.89q0,10.95-7.28,17.81T194.6,141.48Zm0-30.63a5.16,5.16,0,0,0-3.87,1.53,5.42,5.42,0,0,0-1.49,3.95,5.35,5.35,0,0,0,1.49,3.93,5.2,5.2,0,0,0,3.87,1.51,5.17,5.17,0,0,0,5.44-5.43,5.18,5.18,0,0,0-5.44-5.48Z"/><path class="cls-9" d="M247,103.47Q251.71,92.6,260.6,92.6a11,11,0,0,1,8.17,3.25A11.26,11.26,0,0,1,272,104.1a11.62,11.62,0,0,1-3.15,8.47,11,11,0,0,1-8.23,3.23,13.16,13.16,0,0,1-9.92-4.36q-3.65,3.09-3.65,11.5v17.81H222.51V93H247Z"/><path class="cls-9" d="M293.83,93v47.77H269.31V93q4.84,2.74,12.58,2.74A23.68,23.68,0,0,0,293.83,93Zm-7.06.16a7,7,0,0,1-7-7,6.59,6.59,0,0,1,2.06-4.88,6.78,6.78,0,0,1,4.92-2,6.91,6.91,0,0,1,6.9,6.9,6.78,6.78,0,0,1-2,4.92A6.59,6.59,0,0,1,286.76,93.15Z"/><path class="cls-9" d="M346.25,122.55v8.37q-8.06,10.55-23.17,10.55-12.46,0-20-6.92t-7.58-18.23q0-10.75,7-17.54T320.51,92A28.48,28.48,0,0,1,331,93.91a23.2,23.2,0,0,1,13.57,14.16,37.11,37.11,0,0,1,1.67,11.9h-25a11.29,11.29,0,0,0,4.52,5.71,13,13,0,0,0,7.26,2.06Q341.25,127.75,346.25,122.55Zm-26.5-11H331.3a9.38,9.38,0,0,0-1.77-5.57,5.12,5.12,0,0,0-4.19-2,5.05,5.05,0,0,0-3.93,1.92A8.42,8.42,0,0,0,319.75,111.6Z"/><path class="cls-9" d="M343.81,136.12l5.47-13.41A18.51,18.51,0,0,0,355.4,128a14.73,14.73,0,0,0,7,1.92,5.65,5.65,0,0,0,3.43-1,2.93,2.93,0,0,0,1.29-2.46A3.5,3.5,0,0,0,366,124q-1.09-1.09-5.77-2.44a40.07,40.07,0,0,1-7.74-3,13.42,13.42,0,0,1-5-4.74A12.93,12.93,0,0,1,351.65,96Q357.78,92,368.85,92q12.46,0,21.3,4.09l-5.87,12.18q-5.79-5.2-11.19-5.2a4.88,4.88,0,0,0-2.9.79,2.4,2.4,0,0,0-1.11,2,3.38,3.38,0,0,0,1.13,2.54q1.13,1.07,6,2.3a41.55,41.55,0,0,1,8.19,2.82,12.26,12.26,0,0,1,5.16,4.76,13.73,13.73,0,0,1,1.92,7.26,13.56,13.56,0,0,1-6,11.64q-6,4.27-15.45,4.26A70.51,70.51,0,0,1,343.81,136.12Z"/></svg>